<svg xmlns="http://www.w3.org/2000/svg" width="256" height="256"><path fill="#1976D2" fill-opacity=".016" fill-rule="evenodd" d="M0 128.004v128.004l128.25-.254 128.25-.254.254-127.75L257.008 0H0zm.485.496c0 70.4.119 99.053.265 63.672s.146-92.98 0-128S.485 58.1.485 128.5"/><path fill="#1976D2" fill-opacity=".418" fill-rule="evenodd" d="M108.814 1.013c-43.498 6.88-82.261 36.88-98.712 76.397C2.219 96.344-.548 112.342.312 134c.846 21.294 5.834 39.101 15.866 56.633 18.479 32.298 46.348 53.138 83.822 62.682 7.369 1.876 11.161 2.157 28.5 2.11 18.248-.05 20.832-.28 29.5-2.625 37.997-10.278 65.644-32.002 83.937-65.953 4.928-9.145 10.623-25.983 12.132-35.864.628-4.115 1.545-8.264 2.037-9.219 1.267-2.461 1.167-29.051-.106-28.264-.589.364-1.003-.741-1.007-2.691-.004-1.82-.871-6.909-1.927-11.309-11.671-48.638-47.323-84.321-96.566-96.649-9.127-2.286-37.857-3.393-47.686-1.838m42.532 55.228c-4.191 4.546-11.004 14.209-13.65 19.359l-1.592 3.1 10.698.62c20.95 1.212 41.847 8.787 61.528 22.303 4.306 2.957 8.278 5.377 8.825 5.377.548 0 4.132-1.832 7.966-4.07 7.871-4.598 7.657-3.38 2.771-15.755-4.763-12.064-16.652-30.21-21.892-33.413-1.086-.663-4.75.935-13.272 5.79l-11.773 6.706-5.727-4c-5.762-4.024-13.925-8.442-17.831-9.649-1.632-.505-2.989.31-6.051 3.632m-106.83 3.461c-6.92 8.389-12.641 17.963-16.511 27.627-4.726 11.802-5.13 10.865 7.995 18.523l11.5 6.71-.27 11.469c-.149 6.308.093 13.037.538 14.954.748 3.225 1.215 3.579 6.27 4.75 3.004.696 10.496 1.558 16.648 1.915l11.185.649-5.453-10.899C65.97 114.514 62.116 89.355 65.615 64.875c.514-3.595.459-3.659-6.636-7.75C55.044 54.856 51.424 53 50.934 53c-.489 0-3.378 3.016-6.418 6.702m76.66 48.378c-1.828.559-5.212 2.907-7.52 5.218-8.657 8.669-8.716 20.676-.143 29.261 11.515 11.533 30.416 6.181 34.645-9.809 2.229-8.425-1.771-17.876-9.619-22.726-4.049-2.502-12.456-3.444-17.363-1.944M.397 128c0 7.975.156 11.238.346 7.25s.189-10.513 0-14.5c-.19-3.987-.346-.725-.346 7.25m162.959 36.437c-10.885 18.554-28.194 33.929-51.106 45.393L101 215.46v17.314l6.75 1.363c3.715.75 12.82 1.363 20.25 1.363s16.535-.613 20.25-1.363l6.75-1.363v-28.406l5.601-2.321C167.353 199.248 180 191.036 180 189.45c0-3.608-8.456-22.78-12.313-27.916-1.411-1.88-1.6-1.754-4.331 2.903"/><path fill="#1976D2" fill-opacity=".726" fill-rule="evenodd" d="M111.635 1.065c-28.986 4.017-52.736 15.879-73.764 36.84C12.665 63.032.556 92.268.556 128c0 35.714 12.081 64.894 37.315 90.129 15.412 15.412 30.621 24.84 50.659 31.404 37.417 12.257 78.127 6.477 111.47-15.826 9.793-6.551 27.294-24.121 33.986-34.121 10.279-15.359 17.19-33.084 20.7-53.086 1.856-10.573 2.828-28.534 1.592-29.398-.474-.331-1.379-4.202-2.012-8.602-3.819-26.551-16.183-50.704-36.137-70.595C198.964 18.801 178.782 7.911 152.5 2.494 142.876.51 121.126-.251 111.635 1.065m4.865 19.344c-.55.208-4.263.917-8.25 1.576L101 23.182v28.45l-5.601 2.321C88.647 56.752 76 64.964 76 66.55c0 2.226 3.777 12.059 7.279 18.95 4.285 8.431 6.626 11.53 7.367 9.751.286-.686 2.667-4.537 5.291-8.557 10.513-16.104 26.245-29.541 46.809-39.978l12.245-6.216.005-8.612.004-8.612-5.75-1.238c-5.47-1.179-30.636-2.43-32.75-1.629m32.904 37.389C143.646 64.739 136 76.723 136 78.808c0 .835 2.767 1.197 9.25 1.209 20.008.038 41.715 7.535 62.376 21.543l9.511 6.448 7.181-4.151c3.95-2.283 7.375-4.316 7.611-4.516.86-.732-3.283-12.055-7.442-20.341-4.014-7.996-9.555-16.186-16.129-23.838l-2.868-3.337-12.205 7.011-12.206 7.012-7.79-5.199c-4.284-2.859-10.159-6.178-13.057-7.376l-5.267-2.177zM46.42 56.75c-6.492 7.556-10.895 14.154-15.184 22.75-3.949 7.916-7.993 19.123-7.165 19.854.236.207 5.549 3.309 11.808 6.891l11.378 6.514.122 14.536c.066 7.995.393 14.808.724 15.141 2.331 2.334 34.737 5.039 33.721 2.814-.188-.412-2.25-4.451-4.582-8.976-9.405-18.245-12.609-33.953-12.084-59.228l.342-16.454-7-4.222c-3.85-2.323-7.225-4.256-7.5-4.296s-2.336 2.064-4.58 4.676m71.045 53.157c-14.099 8.087-13.919 28.63.318 36.378 10.461 5.694 22.934 2.164 28.502-8.068 10.253-18.837-10.241-38.967-28.82-28.31m62.204 10.843c6.291 12.65 9.866 25.715 11.353 41.486.954 10.117.87 14.207-.575 27.915l-.49 4.651 7.266 4.19c5.228 3.013 7.689 3.928 8.772 3.259 2.647-1.636 11.034-12.512 15.56-20.178 4.886-8.278 10.954-23.969 9.734-25.173-.434-.428-5.727-3.643-11.763-7.144l-10.975-6.366-.025-14.144c-.017-9.199-.424-14.542-1.163-15.282-1.476-1.477-17.992-3.948-26.452-3.957l-6.589-.007zM.37 128c0 5.775.165 8.137.367 5.25s.202-7.612 0-10.5S.37 122.225.37 128M31 152.857c-7.553 4.436-7.55 4.419-2.941 15.99 4.856 12.191 16.655 30.133 21.983 33.427 1.149.71 4.531-.771 13.252-5.804l11.709-6.758 5.95 4.174c3.272 2.296 8.922 5.565 12.555 7.265l6.606 3.091 2.554-2.371c3.866-3.589 10.657-12.679 14.285-19.121l3.238-5.75h-5.523c-20.759 0-45.914-8.444-66.571-22.345-4.622-3.11-8.897-5.646-9.5-5.635-.603.01-4.022 1.737-7.597 3.837m129.086 15.749c-11.267 17.208-28.611 31.853-49.728 41.988L101 215.085v17.672l4.25 1.198c9.649 2.721 40.724 2.295 48.436-.665.998-.383 1.314-3.828 1.314-14.311v-13.808l8.25-4.062c4.537-2.235 10.365-5.636 12.95-7.559l4.699-3.496-2.307-6.777c-2.361-6.937-7.024-16.627-10.356-21.521l-1.868-2.744z"/><path fill="#1976D2" fill-opacity=".95" fill-rule="evenodd" d="M115.265.972C65.428 6.622 24.492 38.874 7.642 85.766c-9.359 26.045-9.364 58.301-.014 84.468 23.36 65.375 93.368 100.036 159.746 79.091 43.043-13.582 76.408-51.093 85.61-96.248 1.109-5.44 2.016-12.435 2.016-15.543 0-3.513.378-5.418 1-5.034.629.389.974-1.723.93-5.691-.05-4.451-.324-5.72-.93-4.309-.616 1.434-.879.346-.93-3.843-.038-3.214-.977-10.294-2.086-15.734-10.305-50.571-49.425-89.729-99.75-99.849C141.643.743 125.278-.163 115.265.972m.917 19.138c-4.025.467-9.088 1.326-11.25 1.908L101 23.077v27.578l-9.25 4.595c-5.088 2.528-10.961 6.093-13.052 7.923L74.896 66.5l1.985 5.711c3.984 11.465 12.642 26.771 13.71 24.237 2.35-5.574 9.431-15.411 16.409-22.794 11.1-11.745 21.462-19.341 36.023-26.408l11.838-5.746.069-9.211.07-9.212-3.75-1.004c-4.492-1.204-20.535-3.106-24.75-2.935-1.65.067-6.293.504-10.318.972m35.641 34.64c-5.455 5.709-10.648 12.961-13.909 19.42L134.971 80h7.884c21.132 0 43.324 7.512 64.974 21.993l9.207 6.159 6.732-3.719c9.94-5.492 9.485-4.607 6.556-12.764-3.847-10.711-8.449-19.321-15.072-28.202-9.834-13.185-8.213-12.805-21.669-5.078C187.25 62.025 181.663 65 181.167 65s-3.999-2.079-7.785-4.62c-5.259-3.53-16.363-9.38-17.803-9.38-.095 0-1.785 1.688-3.756 3.75m-107.7 4.426c-3.326 4.028-7.948 10.643-10.27 14.7C29.62 81.269 22.82 97.9 23.548 99.078c.214.346 5.711 3.68 12.217 7.411l11.828 6.784-.846 7.269c-.465 3.998-.486 10.573-.046 14.61l.799 7.342 3.705 1.212c5.106 1.672 21.302 3.222 26.962 2.581l4.666-.528-2.869-4.662c-10.818-17.583-16.429-44.481-14.398-69.021l.934-11.281-6.686-3.904c-3.678-2.148-7.352-4.16-8.166-4.472-.984-.378-3.5 1.881-7.525 6.757m79.377 47.738c-10.366 2.597-16.826 10.696-16.82 21.086.007 12.205 9.124 21.323 21.32 21.323 22.58 0 29.716-30.488 9.5-40.588-3.899-1.947-10.217-2.77-14-1.821m50.5 3.473c0 .213 1.985 4.151 4.41 8.75 9.369 17.764 13.121 36.434 12.233 60.863l-.563 15.5 7.672 4.39 7.671 4.39 3.887-4.39c9.33-10.537 22.558-34.716 22.659-41.419.024-1.554-2.779-3.644-11.978-8.935-8.663-4.982-11.886-7.342-11.568-8.471 1.257-4.474 1.007-24.838-.332-26.952-1.292-2.04-13.197-4.034-24.341-4.076-5.363-.02-9.75.137-9.75.35M.32 128c0 3.575.182 5.037.403 3.25s.222-4.713 0-6.5C.502 122.963.32 124.425.32 128m30.93 24.232c-5.321 3.067-7.242 4.723-7.219 6.223.101 6.722 13.317 30.884 22.674 41.453l3.902 4.408 12.279-7.128 12.279-7.128 5.167 3.894c2.843 2.143 8.52 5.499 12.616 7.459l7.448 3.564 2.349-2.207c5.311-4.989 17.255-22.512 17.255-25.314 0-.783-3.835-1.356-11.75-1.757-20.36-1.031-40.244-8.172-60.225-21.628-4.958-3.339-9.129-6.059-9.27-6.044-.14.014-3.518 1.907-7.505 4.205m133.75 7.64c0 2.212-10.666 16.847-17.464 23.962-9.569 10.017-21.949 18.848-36.286 25.885L100 215.242v8.256c0 5.387.434 8.617 1.25 9.292 5.575 4.615 47.925 4.615 53.5 0 .89-.737 1.25-5.029 1.25-14.912 0-9.463.351-13.878 1.105-13.878 1.821 0 10.974-4.813 17.682-9.297 7.163-4.788 7.059-3.984 2.157-16.687C172.722 167.075 165 155.344 165 159.872"/></svg>