<svg xmlns="http://www.w3.org/2000/svg" width="256" height="256"><path fill="#1976D2" fill-opacity=".016" fill-rule="evenodd" d="M0 128.004v128.004l128.25-.254 128.25-.254.254-127.75L257.008 0H0zm.485.496c0 70.4.119 99.053.265 63.672s.146-92.98 0-128S.485 58.1.485 128.5"/><path fill="#1976D2" fill-opacity=".414" fill-rule="evenodd" d="M105.922 1.492C54.216 11.264 15.863 47.867 2.705 100 .875 107.25.559 111.368.559 128s.316 20.75 2.146 28c7.618 30.184 22.825 54.363 45.349 72.104C63.36 240.161 77.982 247.39 98 252.796c8.746 2.362 11.128 2.566 30 2.566s21.254-.204 30-2.566c37.92-10.242 65.668-32.043 83.937-65.949 4.928-9.145 10.623-25.983 12.132-35.864.628-4.115 1.545-8.264 2.037-9.219 1.267-2.461 1.167-29.051-.106-28.264-.589.364-1.003-.741-1.007-2.691-.004-1.82-.871-6.909-1.927-11.309-11.679-48.67-47.127-84.157-96.566-96.672-10.644-2.694-39.376-3.453-50.578-1.336m41.917 63.46C143.773 69.666 136 81.54 136 83.038c0 .371 4.059.981 9.019 1.356 18.697 1.411 37.8 8.344 54.562 19.8l8.081 5.524 6.577-3.853c5.652-3.312 6.496-4.171 6.005-6.109-1.19-4.696-6.206-16.096-9.411-21.39C206.65 71.457 198.246 61 196.877 61c-.568 0-5.689 2.722-11.381 6.049l-10.35 6.049-4.735-3.614c-4.733-3.613-11.998-7.633-16.072-8.894-1.745-.539-2.996.3-6.5 4.362m-93.617.798c-6.031 7.227-11.734 16.523-15.05 24.53-4.916 11.873-5.203 11.114 6.828 18.069l10.5 6.071-.29 12.04c-.16 6.622.112 12.635.603 13.362.492.728 2.648 1.735 4.791 2.239C66.543 143.223 86 144.512 86 143.678c0-.344-1.761-4.125-3.913-8.402-8.212-16.318-10.388-26.597-10.5-49.58L71.5 67.893 66 64.469c-3.025-1.883-6.021-3.434-6.657-3.446s-2.941 2.115-5.121 4.727m68.398 44.453c-5.425 1.478-11.025 7.375-12.476 13.138C105.56 141.549 127.751 154.249 141 141c13.493-13.493.151-35.847-18.38-30.797M.397 128c0 7.975.156 11.238.346 7.25s.189-10.513 0-14.5c-.19-3.987-.346-.725-.346 7.25m158.778 33.176c-9.278 16.16-26.146 30.894-46.925 40.988l-8.25 4.007v15.509l7.25 1.301c9.138 1.641 24.359 1.628 33.625-.028L152 221.68l.027-12.59.027-12.59 7.723-3.686c4.248-2.028 9.383-5.075 11.412-6.773l3.688-3.085-1.806-5.251c-1.842-5.351-5.644-13.311-8.983-18.8l-1.856-3.053z"/><path fill="#1976D2" fill-opacity=".558" fill-rule="evenodd" d="M108.53 1.587C90.49 4.391 71.763 11.744 56.279 22.105 46.398 28.717 28.81 46.258 22.293 56 7.107 78.704.589 100.325.589 128c0 36.13 11.772 64.55 37.316 90.095 15.727 15.727 30.349 24.812 50.51 31.384 14.294 4.658 23.012 5.974 39.585 5.974s25.291-1.316 39.585-5.974c20.161-6.572 34.783-15.657 50.51-31.384 20.164-20.164 31.588-42.395 36.533-71.095 1.909-11.078 2.898-29.026 1.647-29.898-.475-.331-1.423-4.564-2.106-9.406-2.367-16.783-9.989-36.038-20.462-51.696-6.446-9.636-24.071-27.261-33.707-33.707-27.183-18.182-59.959-25.602-91.47-20.706M121 31.626c-1.925.225-6.537.892-10.25 1.482L104 34.181v25.547l-4.434 1.694c-3.517 1.343-12.949 6.971-17.826 10.637-1.139.857 2.658 11.073 7.477 20.118 3.513 6.593 4.443 7.711 5.274 6.338 12.283-20.301 27.594-34.207 49.158-44.644L152 49.829V34.32l-6.75-1.14c-8.2-1.384-19.502-2.109-24.25-1.554M55.038 64.574c-2.242 2.433-6.157 7.64-8.7 11.571C41.824 83.123 35.049 98.006 35.024 101c-.007.868 4.456 4.028 10.593 7.5l10.606 6-.657 7.289c-.361 4.009-.354 9.966.017 13.238.653 5.774.779 5.982 4.295 7.035 1.992.597 8.967 1.342 15.501 1.654l11.878.569-3.53-6.392c-8.728-15.804-11.922-30.599-11.601-53.727l.228-16.334-6.62-3.84-6.619-3.84zm91.927.844C142.571 70.91 135 82.702 135 84.053c0 .379 4.838.925 10.75 1.212 6.068.294 14.171 1.433 18.604 2.614 10.035 2.673 24.668 9.606 35.148 16.651l8.206 5.517 6.637-3.774c3.65-2.075 6.632-4.448 6.627-5.273-.037-6.145-13.856-30.762-21.139-37.656l-3.333-3.155-10.352 6.075c-10.231 6.004-10.383 6.056-13 4.385-9.726-6.21-16.102-9.69-18.707-10.211-2.732-.546-3.425-.085-7.476 4.98M120.5 110.89c-15.405 7.11-14.963 28.005.732 34.562 4.697 1.963 8.839 1.963 13.536 0 16.011-6.689 16.011-28.215 0-34.904-4.865-2.033-9.355-1.925-14.268.342m49.5 1.635c0 .289 1.638 3.776 3.639 7.75 8.453 16.782 10.683 27.129 10.783 50.029l.078 17.803 5.5 3.424c3.025 1.883 6.021 3.434 6.657 3.446 3.033.06 15.596-18.181 20.15-29.257 5.098-12.399 5.684-10.769-6.433-17.908l-10.719-6.316.242-12.107c.195-9.703-.057-12.406-1.268-13.617-2.383-2.383-28.629-5.36-28.629-3.247M.37 128c0 5.775.165 8.137.367 5.25s.202-7.612 0-10.5S.37 122.225.37 128m41.51 21.931c-7.404 4.296-7.422 4.404-2.708 15.789C43.582 176.371 56.274 195 59.121 195c.513 0 5.608-2.727 11.32-6.059l10.387-6.059 4.836 3.712c2.66 2.042 7.733 5.076 11.274 6.742l6.438 3.028 4.562-5.102c4.251-4.755 10.179-13.66 11.569-17.379.519-1.386-.718-1.72-8.694-2.344-18.959-1.483-37.584-8.244-54.433-19.759l-8.12-5.55zM161 156.872c0 .479-2.177 4.192-4.837 8.25-9.508 14.502-27.171 29.142-44.634 36.994l-7.527 3.384-.001 8.179-.001 8.179 5.75 1.281c3.162.704 11.375 1.28 18.25 1.28s15.088-.576 18.25-1.28l5.75-1.281v-24.97l4.75-2.081c6.141-2.691 18.25-10.481 18.25-11.741 0-.536-1.037-3.833-2.306-7.327C168.76 164.899 161 152.38 161 156.872"/><path fill="#1976D2" fill-opacity=".969" fill-rule="evenodd" d="M115.265.972C65.428 6.622 24.492 38.874 7.642 85.766c-9.359 26.045-9.364 58.301-.014 84.468 23.366 65.39 93.352 100.041 159.746 79.091 43.043-13.582 76.408-51.093 85.61-96.248 1.109-5.44 2.016-12.435 2.016-15.543 0-3.513.378-5.418 1-5.034.629.389.974-1.723.93-5.691-.05-4.451-.324-5.72-.93-4.309-.616 1.434-.879.346-.93-3.843-.038-3.214-.977-10.294-2.086-15.734-10.305-50.571-49.425-89.729-99.75-99.849C141.643.743 125.278-.163 115.265.972M111.5 32.383c-3.3.653-6.562 1.536-7.25 1.961-.884.547-1.268 4.347-1.311 12.965l-.06 12.191-7.69 3.742C90.96 65.3 85.932 68.3 84.015 69.909l-3.486 2.924 1.874 5.514c2.212 6.507 9.691 20.856 11.109 21.312.543.175 2.563-2.453 4.488-5.84 8.032-14.13 28.717-31.806 46.892-40.071l7.308-3.324v-7.866c0-5.571-.394-8.083-1.35-8.608-5.013-2.752-28.613-3.691-39.35-1.567m36.99 30.759C143.975 68.14 135 81.77 135 83.628c0 1.024 1.714 1.381 6.75 1.407 18.446.095 38.496 6.932 57.25 19.522l8.5 5.707 6.5-3.589c6.132-3.385 6.494-3.785 6.392-7.068-.161-5.158-9.412-23.243-16.367-31.995-3.327-4.187-6.383-7.612-6.792-7.612s-5.389 2.7-11.068 6-10.513 6-10.743 6c-.229 0-2.556-1.521-5.17-3.38-4.713-3.353-11.107-6.854-15.716-8.606-2.068-.786-2.896-.358-6.046 3.128m-95.144 2.842c-6.328 7.814-11.522 16.477-15.2 25.352-4.623 11.157-5.012 10.184 6.854 17.141l10.5 6.156-.292 10.433c-.412 14.726.127 16.116 6.862 17.678 5.842 1.355 23.355 2.163 24.393 1.126.347-.347-.969-3.54-2.923-7.097-8.465-15.4-11.816-31.257-11.356-53.744l.316-15.471-6.496-3.779C62.432 61.7 59.213 60 58.851 60s-2.839 2.693-5.505 5.984m64.918 45.574C101.703 121.484 108.713 147 128 147c19.347 0 26.325-25.692 9.636-35.473-5.949-3.486-13.524-3.474-19.372.031m50.912 1.192c.188.412 2.263 4.478 4.612 9.035 2.348 4.556 5.455 12.431 6.904 17.5 2.4 8.393 2.655 10.992 2.855 29.137l.219 19.921 6.736 3.946 6.735 3.946 2.431-2.867c6.056-7.144 11.794-15.354 14.578-20.864 3.068-6.068 6.754-15.869 6.754-17.955 0-.625-4.693-3.817-10.428-7.093l-10.428-5.956.515-9.5c.283-5.225.121-11.3-.36-13.5-.844-3.863-1.061-4.04-6.337-5.154-6.131-1.294-25.316-1.756-24.786-.596M.32 128c0 3.575.182 5.037.403 3.25s.222-4.713 0-6.5C.502 122.963.32 124.425.32 128m41.18 21.643c-3.3 1.963-6.193 3.751-6.429 3.975-.764.724 3.086 11.707 6.442 18.382 2.978 5.919 8.423 13.835 14.713 21.387l2.404 2.887 10.632-6.137C75.11 186.762 80.148 184 80.459 184s3.197 1.798 6.416 3.995c3.218 2.197 8.388 5.116 11.487 6.486l5.635 2.492 6.047-7.609c4.931-6.205 10.956-15.928 10.956-17.681 0-.211-4.838-.648-10.75-.971-18.011-.985-35.753-7.345-53.153-19.056-4.622-3.111-8.672-5.639-9-5.618s-3.297 1.643-6.597 3.605m116.011 12.891c-9.72 15.595-23.694 27.785-43.418 37.874L103 206.082v15.675l4.25 1.185c6.523 1.818 27.4 2.494 35.348 1.144 11.405-1.938 10.398-.499 10.429-14.903l.027-12.683 6.223-2.793c7.664-3.439 15.723-9.205 15.723-11.249 0-2.69-5.917-16.788-9.355-22.292l-3.333-5.334z"/></svg>